<svg xmlns="http://www.w3.org/2000/svg" xmlns:xlink="http://www.w3.org/1999/xlink" width="198" zoomAndPan="magnify" viewBox="0 0 148.5 30.000001" height="40" preserveAspectRatio="xMidYMid meet" version="1.0"><defs><g/><clipPath id="id1"><path d="M 2.667969 0.960938 L 31 0.960938 L 31 29.03125 L 2.667969 29.03125 Z M 2.667969 0.960938 " clip-rule="nonzero"/></clipPath><clipPath id="id2"><path d="M 28.105469 24.691406 L 30.769531 27.382812 L 28.808594 29.363281 L 25.792969 26.316406 L 23.554688 25.007812 C 22.113281 26.804688 20.054688 27.988281 17.792969 28.316406 L 17.792969 18.226562 L 17.480469 17.910156 L 15.195312 17.910156 L 15.195312 28.316406 C 12.933594 27.988281 10.875 26.804688 9.4375 25.007812 L 6.15625 26.921875 L 4.859375 24.648438 L 8.105469 22.753906 C 7.644531 21.636719 7.40625 20.433594 7.410156 19.222656 L 3.515625 19.222656 L 3.515625 16.597656 L 7.410156 16.597656 L 7.410156 15.285156 C 7.410156 14.441406 7.523438 13.625 7.730469 12.851562 L 4.859375 11.171875 L 6.15625 8.898438 L 8.78125 10.429688 C 8.863281 10.296875 8.949219 10.164062 9.039062 10.035156 L 9.691406 10.035156 L 2.679688 2.945312 L 4.636719 0.960938 L 13.613281 10.035156 L 13.753906 10.035156 L 25.257812 21.664062 C 25.246094 21.703125 25.234375 21.738281 25.226562 21.777344 L 27.972656 24.558594 L 28.128906 24.648438 Z M 29.472656 19.222656 L 25.707031 19.222656 L 16.621094 10.035156 L 23.953125 10.035156 C 24.042969 10.164062 24.125 10.296875 24.210938 10.429688 L 26.832031 8.898438 L 28.128906 11.171875 L 25.257812 12.851562 C 25.46875 13.625 25.582031 14.441406 25.582031 15.285156 L 25.582031 16.597656 L 29.472656 16.597656 Z M 21.6875 7.410156 L 14.023438 7.410156 L 11.800781 5.164062 C 12.054688 4.625 12.398438 4.128906 12.824219 3.699219 C 13.796875 2.714844 15.117188 2.164062 16.496094 2.164062 C 17.871094 2.164062 19.191406 2.714844 20.164062 3.699219 C 21.140625 4.683594 21.6875 6.019531 21.6875 7.410156 Z M 21.6875 7.410156 " clip-rule="evenodd"/></clipPath><linearGradient x1="0.233998" gradientTransform="matrix(0.70228, 0, 0, 0.710044, 2.678203, 0.962797)" y1="39.766002" x2="39.999979" gradientUnits="userSpaceOnUse" y2="0.0000209347" id="id3"><stop stop-opacity="1" stop-color="rgb(25.05188%, 44.132996%, 95.420837%)" offset="0"/><stop stop-opacity="1" stop-color="rgb(25.019836%, 44.288635%, 95.236206%)" offset="0.0078125"/><stop stop-opacity="1" stop-color="rgb(24.95575%, 44.598389%, 94.868469%)" offset="0.015625"/><stop stop-opacity="1" stop-color="rgb(24.891663%, 44.909668%, 94.499207%)" offset="0.0234375"/><stop stop-opacity="1" stop-color="rgb(24.827576%, 45.220947%, 94.129944%)" offset="0.03125"/><stop stop-opacity="1" stop-color="rgb(24.765015%, 45.530701%, 93.760681%)" offset="0.0390625"/><stop stop-opacity="1" stop-color="rgb(24.700928%, 45.84198%, 93.391418%)" offset="0.046875"/><stop stop-opacity="1" stop-color="rgb(24.636841%, 46.151733%, 93.023682%)" offset="0.0546875"/><stop stop-opacity="1" stop-color="rgb(24.572754%, 46.463013%, 92.654419%)" offset="0.0625"/><stop stop-opacity="1" stop-color="rgb(24.510193%, 46.774292%, 92.285156%)" offset="0.0703125"/><stop stop-opacity="1" stop-color="rgb(24.446106%, 47.084045%, 91.915894%)" offset="0.078125"/><stop stop-opacity="1" stop-color="rgb(24.382019%, 47.395325%, 91.548157%)" offset="0.0859375"/><stop stop-opacity="1" stop-color="rgb(24.317932%, 47.705078%, 91.178894%)" offset="0.09375"/><stop stop-opacity="1" stop-color="rgb(24.255371%, 48.016357%, 90.809631%)" offset="0.101562"/><stop stop-opacity="1" stop-color="rgb(24.191284%, 48.327637%, 90.440369%)" offset="0.109375"/><stop stop-opacity="1" stop-color="rgb(24.127197%, 48.63739%, 90.071106%)" offset="0.117187"/><stop stop-opacity="1" stop-color="rgb(24.064636%, 48.948669%, 89.703369%)" offset="0.125"/><stop stop-opacity="1" stop-color="rgb(24.000549%, 49.258423%, 89.334106%)" offset="0.132812"/><stop stop-opacity="1" stop-color="rgb(23.936462%, 49.569702%, 88.964844%)" offset="0.140625"/><stop stop-opacity="1" stop-color="rgb(23.872375%, 49.880981%, 88.595581%)" offset="0.148437"/><stop stop-opacity="1" stop-color="rgb(23.809814%, 50.190735%, 88.227844%)" offset="0.15625"/><stop stop-opacity="1" stop-color="rgb(23.745728%, 50.502014%, 87.858582%)" offset="0.164062"/><stop stop-opacity="1" stop-color="rgb(23.681641%, 50.811768%, 87.489319%)" offset="0.171875"/><stop stop-opacity="1" stop-color="rgb(23.617554%, 51.123047%, 87.120056%)" offset="0.179687"/><stop stop-opacity="1" stop-color="rgb(23.554993%, 51.434326%, 86.750793%)" offset="0.1875"/><stop stop-opacity="1" stop-color="rgb(23.490906%, 51.74408%, 86.383057%)" offset="0.195312"/><stop stop-opacity="1" stop-color="rgb(23.426819%, 52.055359%, 86.013794%)" offset="0.203125"/><stop stop-opacity="1" stop-color="rgb(23.362732%, 52.365112%, 85.644531%)" offset="0.210937"/><stop stop-opacity="1" stop-color="rgb(23.300171%, 52.676392%, 85.275269%)" offset="0.21875"/><stop stop-opacity="1" stop-color="rgb(23.236084%, 52.987671%, 84.907532%)" offset="0.226562"/><stop stop-opacity="1" stop-color="rgb(23.171997%, 53.297424%, 84.538269%)" offset="0.234375"/><stop stop-opacity="1" stop-color="rgb(23.10791%, 53.608704%, 84.169006%)" offset="0.242187"/><stop stop-opacity="1" stop-color="rgb(23.045349%, 53.918457%, 83.799744%)" offset="0.25"/><stop stop-opacity="1" stop-color="rgb(22.981262%, 54.229736%, 83.430481%)" offset="0.257812"/><stop stop-opacity="1" stop-color="rgb(22.917175%, 54.541016%, 83.062744%)" offset="0.265625"/><stop stop-opacity="1" stop-color="rgb(22.853088%, 54.850769%, 82.693481%)" offset="0.273438"/><stop stop-opacity="1" stop-color="rgb(22.790527%, 55.162048%, 82.324219%)" offset="0.28125"/><stop stop-opacity="1" stop-color="rgb(22.72644%, 55.471802%, 81.954956%)" offset="0.289062"/><stop stop-opacity="1" stop-color="rgb(22.662354%, 55.783081%, 81.587219%)" offset="0.296875"/><stop stop-opacity="1" stop-color="rgb(22.599792%, 56.09436%, 81.217957%)" offset="0.304688"/><stop stop-opacity="1" stop-color="rgb(22.535706%, 56.404114%, 80.848694%)" offset="0.3125"/><stop stop-opacity="1" stop-color="rgb(22.471619%, 56.715393%, 80.479431%)" offset="0.320312"/><stop stop-opacity="1" stop-color="rgb(22.407532%, 57.025146%, 80.110168%)" offset="0.328125"/><stop stop-opacity="1" stop-color="rgb(22.344971%, 57.336426%, 79.742432%)" offset="0.335938"/><stop stop-opacity="1" stop-color="rgb(22.280884%, 57.647705%, 79.373169%)" offset="0.34375"/><stop stop-opacity="1" stop-color="rgb(22.216797%, 57.957458%, 79.003906%)" offset="0.351562"/><stop stop-opacity="1" stop-color="rgb(22.15271%, 58.268738%, 78.634644%)" offset="0.359375"/><stop stop-opacity="1" stop-color="rgb(22.090149%, 58.578491%, 78.266907%)" offset="0.367187"/><stop stop-opacity="1" stop-color="rgb(22.026062%, 58.889771%, 77.897644%)" offset="0.375"/><stop stop-opacity="1" stop-color="rgb(21.961975%, 59.20105%, 77.528381%)" offset="0.382812"/><stop stop-opacity="1" stop-color="rgb(21.897888%, 59.510803%, 77.159119%)" offset="0.390625"/><stop stop-opacity="1" stop-color="rgb(21.835327%, 59.822083%, 76.789856%)" offset="0.398437"/><stop stop-opacity="1" stop-color="rgb(21.77124%, 60.131836%, 76.422119%)" offset="0.40625"/><stop stop-opacity="1" stop-color="rgb(21.707153%, 60.443115%, 76.052856%)" offset="0.414062"/><stop stop-opacity="1" stop-color="rgb(21.643066%, 60.754395%, 75.683594%)" offset="0.421875"/><stop stop-opacity="1" stop-color="rgb(21.580505%, 61.064148%, 75.314331%)" offset="0.429687"/><stop stop-opacity="1" stop-color="rgb(21.516418%, 61.375427%, 74.946594%)" offset="0.4375"/><stop stop-opacity="1" stop-color="rgb(21.452332%, 61.685181%, 74.577332%)" offset="0.445312"/><stop stop-opacity="1" stop-color="rgb(21.389771%, 61.99646%, 74.208069%)" offset="0.453125"/><stop stop-opacity="1" stop-color="rgb(21.325684%, 62.307739%, 73.838806%)" offset="0.460937"/><stop stop-opacity="1" stop-color="rgb(21.261597%, 62.617493%, 73.469543%)" offset="0.46875"/><stop stop-opacity="1" stop-color="rgb(21.19751%, 62.928772%, 73.101807%)" offset="0.476562"/><stop stop-opacity="1" stop-color="rgb(21.134949%, 63.238525%, 72.732544%)" offset="0.484375"/><stop stop-opacity="1" stop-color="rgb(21.070862%, 63.549805%, 72.363281%)" offset="0.492187"/><stop stop-opacity="1" stop-color="rgb(21.006775%, 63.861084%, 71.994019%)" offset="0.497058"/><stop stop-opacity="1" stop-color="rgb(20.974731%, 64.016724%, 71.810913%)" offset="0.5"/><stop stop-opacity="1" stop-color="rgb(20.942688%, 64.170837%, 71.626282%)" offset="0.502942"/><stop stop-opacity="1" stop-color="rgb(20.91217%, 64.326477%, 71.44165%)" offset="0.507812"/><stop stop-opacity="1" stop-color="rgb(20.880127%, 64.482117%, 71.257019%)" offset="0.515625"/><stop stop-opacity="1" stop-color="rgb(20.81604%, 64.79187%, 70.887756%)" offset="0.523438"/><stop stop-opacity="1" stop-color="rgb(20.751953%, 65.103149%, 70.518494%)" offset="0.53125"/><stop stop-opacity="1" stop-color="rgb(20.687866%, 65.414429%, 70.149231%)" offset="0.539062"/><stop stop-opacity="1" stop-color="rgb(20.625305%, 65.724182%, 69.781494%)" offset="0.546875"/><stop stop-opacity="1" stop-color="rgb(20.561218%, 66.035461%, 69.412231%)" offset="0.554687"/><stop stop-opacity="1" stop-color="rgb(20.497131%, 66.345215%, 69.042969%)" offset="0.5625"/><stop stop-opacity="1" stop-color="rgb(20.433044%, 66.656494%, 68.673706%)" offset="0.570312"/><stop stop-opacity="1" stop-color="rgb(20.370483%, 66.967773%, 68.305969%)" offset="0.578125"/><stop stop-opacity="1" stop-color="rgb(20.306396%, 67.277527%, 67.936707%)" offset="0.585938"/><stop stop-opacity="1" stop-color="rgb(20.24231%, 67.588806%, 67.567444%)" offset="0.59375"/><stop stop-opacity="1" stop-color="rgb(20.178223%, 67.89856%, 67.198181%)" offset="0.601562"/><stop stop-opacity="1" stop-color="rgb(20.115662%, 68.209839%, 66.830444%)" offset="0.609375"/><stop stop-opacity="1" stop-color="rgb(20.051575%, 68.521118%, 66.461182%)" offset="0.617188"/><stop stop-opacity="1" stop-color="rgb(19.987488%, 68.830872%, 66.091919%)" offset="0.625"/><stop stop-opacity="1" stop-color="rgb(19.924927%, 69.142151%, 65.722656%)" offset="0.632812"/><stop stop-opacity="1" stop-color="rgb(19.86084%, 69.45343%, 65.353394%)" offset="0.640625"/><stop stop-opacity="1" stop-color="rgb(19.796753%, 69.763184%, 64.985657%)" offset="0.648438"/><stop stop-opacity="1" stop-color="rgb(19.732666%, 70.074463%, 64.616394%)" offset="0.65625"/><stop stop-opacity="1" stop-color="rgb(19.670105%, 70.384216%, 64.247131%)" offset="0.664062"/><stop stop-opacity="1" stop-color="rgb(19.606018%, 70.695496%, 63.877869%)" offset="0.671875"/><stop stop-opacity="1" stop-color="rgb(19.541931%, 71.006775%, 63.510132%)" offset="0.679688"/><stop stop-opacity="1" stop-color="rgb(19.477844%, 71.316528%, 63.140869%)" offset="0.6875"/><stop stop-opacity="1" stop-color="rgb(19.415283%, 71.627808%, 62.771606%)" offset="0.695312"/><stop stop-opacity="1" stop-color="rgb(19.351196%, 71.937561%, 62.402344%)" offset="0.703125"/><stop stop-opacity="1" stop-color="rgb(19.287109%, 72.24884%, 62.033081%)" offset="0.710938"/><stop stop-opacity="1" stop-color="rgb(19.223022%, 72.56012%, 61.665344%)" offset="0.71875"/><stop stop-opacity="1" stop-color="rgb(19.160461%, 72.869873%, 61.296082%)" offset="0.726562"/><stop stop-opacity="1" stop-color="rgb(19.096375%, 73.181152%, 60.926819%)" offset="0.734375"/><stop stop-opacity="1" stop-color="rgb(19.032288%, 73.490906%, 60.557556%)" offset="0.742188"/><stop stop-opacity="1" stop-color="rgb(18.968201%, 73.802185%, 60.189819%)" offset="0.75"/><stop stop-opacity="1" stop-color="rgb(18.90564%, 74.113464%, 59.820557%)" offset="0.757812"/><stop stop-opacity="1" stop-color="rgb(18.841553%, 74.423218%, 59.451294%)" offset="0.765625"/><stop stop-opacity="1" stop-color="rgb(18.777466%, 74.734497%, 59.082031%)" offset="0.773438"/><stop stop-opacity="1" stop-color="rgb(18.713379%, 75.04425%, 58.712769%)" offset="0.78125"/><stop stop-opacity="1" stop-color="rgb(18.650818%, 75.35553%, 58.345032%)" offset="0.789062"/><stop stop-opacity="1" stop-color="rgb(18.586731%, 75.666809%, 57.975769%)" offset="0.796875"/><stop stop-opacity="1" stop-color="rgb(18.522644%, 75.976562%, 57.606506%)" offset="0.804688"/><stop stop-opacity="1" stop-color="rgb(18.460083%, 76.287842%, 57.237244%)" offset="0.8125"/><stop stop-opacity="1" stop-color="rgb(18.395996%, 76.597595%, 56.869507%)" offset="0.820312"/><stop stop-opacity="1" stop-color="rgb(18.331909%, 76.908875%, 56.500244%)" offset="0.828125"/><stop stop-opacity="1" stop-color="rgb(18.267822%, 77.220154%, 56.130981%)" offset="0.835938"/><stop stop-opacity="1" stop-color="rgb(18.205261%, 77.529907%, 55.761719%)" offset="0.84375"/><stop stop-opacity="1" stop-color="rgb(18.141174%, 77.841187%, 55.392456%)" offset="0.851562"/><stop stop-opacity="1" stop-color="rgb(18.077087%, 78.15094%, 55.024719%)" offset="0.859375"/><stop stop-opacity="1" stop-color="rgb(18.013%, 78.462219%, 54.655457%)" offset="0.867188"/><stop stop-opacity="1" stop-color="rgb(17.950439%, 78.773499%, 54.286194%)" offset="0.875"/><stop stop-opacity="1" stop-color="rgb(17.886353%, 79.083252%, 53.916931%)" offset="0.882812"/><stop stop-opacity="1" stop-color="rgb(17.822266%, 79.394531%, 53.549194%)" offset="0.890625"/><stop stop-opacity="1" stop-color="rgb(17.758179%, 79.704285%, 53.179932%)" offset="0.898438"/><stop stop-opacity="1" stop-color="rgb(17.695618%, 80.015564%, 52.810669%)" offset="0.90625"/><stop stop-opacity="1" stop-color="rgb(17.631531%, 80.326843%, 52.441406%)" offset="0.914062"/><stop stop-opacity="1" stop-color="rgb(17.567444%, 80.636597%, 52.072144%)" offset="0.921875"/><stop stop-opacity="1" stop-color="rgb(17.503357%, 80.947876%, 51.704407%)" offset="0.929688"/><stop stop-opacity="1" stop-color="rgb(17.440796%, 81.257629%, 51.335144%)" offset="0.9375"/><stop stop-opacity="1" stop-color="rgb(17.376709%, 81.568909%, 50.965881%)" offset="0.945313"/><stop stop-opacity="1" stop-color="rgb(17.312622%, 81.880188%, 50.596619%)" offset="0.953125"/><stop stop-opacity="1" stop-color="rgb(17.250061%, 82.189941%, 50.228882%)" offset="0.960938"/><stop stop-opacity="1" stop-color="rgb(17.185974%, 82.501221%, 49.859619%)" offset="0.96875"/><stop stop-opacity="1" stop-color="rgb(17.121887%, 82.810974%, 49.490356%)" offset="0.976562"/><stop stop-opacity="1" stop-color="rgb(17.0578%, 83.122253%, 49.121094%)" offset="0.984375"/><stop stop-opacity="1" stop-color="rgb(16.995239%, 83.433533%, 48.751831%)" offset="0.992188"/><stop stop-opacity="1" stop-color="rgb(16.931152%, 83.743286%, 48.384094%)" offset="1"/></linearGradient><clipPath id="id4"><path d="M 112 4 L 144.769531 4 L 144.769531 27 L 112 27 Z M 112 4 " clip-rule="nonzero"/></clipPath><clipPath id="id5"><path d="M 114 4.152344 L 143.886719 4.152344 C 144.085938 4.152344 144.28125 4.1875 144.464844 4.265625 C 144.652344 4.34375 144.816406 4.453125 144.957031 4.59375 C 145.097656 4.734375 145.207031 4.898438 145.285156 5.082031 C 145.363281 5.265625 145.398438 5.460938 145.398438 5.660156 L 145.398438 24.925781 C 145.398438 25.125 145.363281 25.320312 145.285156 25.503906 C 145.207031 25.6875 145.097656 25.851562 144.957031 25.992188 C 144.816406 26.136719 144.652344 26.242188 144.464844 26.320312 C 144.28125 26.398438 144.085938 26.433594 143.886719 26.433594 L 114 26.433594 C 113.796875 26.433594 113.605469 26.398438 113.421875 26.320312 C 113.234375 26.242188 113.070312 26.136719 112.929688 25.992188 C 112.785156 25.851562 112.675781 25.6875 112.601562 25.503906 C 112.523438 25.320312 112.484375 25.125 112.484375 24.925781 L 112.484375 5.660156 C 112.484375 5.460938 112.523438 5.265625 112.601562 5.082031 C 112.675781 4.898438 112.785156 4.734375 112.929688 4.59375 C 113.070312 4.453125 113.234375 4.34375 113.421875 4.265625 C 113.605469 4.1875 113.796875 4.152344 114 4.152344 Z M 114 4.152344 " clip-rule="nonzero"/></clipPath><linearGradient x1="143.999996" gradientTransform="matrix(0.62103, 0, 0, 0.619013, 23.057166, 2.913003)" y1="38.000007" x2="177.145204" gradientUnits="userSpaceOnUse" y2="-10.796721" id="id6"><stop stop-opacity="1" stop-color="rgb(25.099182%, 43.899536%, 95.698547%)" offset="0"/><stop stop-opacity="1" stop-color="rgb(25.067139%, 44.05365%, 95.515442%)" offset="0.0078125"/><stop stop-opacity="1" stop-color="rgb(25.003052%, 44.363403%, 95.147705%)" offset="0.015625"/><stop stop-opacity="1" stop-color="rgb(24.940491%, 44.671631%, 94.779968%)" offset="0.0234375"/><stop stop-opacity="1" stop-color="rgb(24.876404%, 44.981384%, 94.412231%)" offset="0.03125"/><stop stop-opacity="1" stop-color="rgb(24.813843%, 45.291138%, 94.044495%)" offset="0.0390625"/><stop stop-opacity="1" stop-color="rgb(24.749756%, 45.600891%, 93.676758%)" offset="0.046875"/><stop stop-opacity="1" stop-color="rgb(24.687195%, 45.910645%, 93.309021%)" offset="0.0546875"/><stop stop-opacity="1" stop-color="rgb(24.623108%, 46.220398%, 92.94281%)" offset="0.0625"/><stop stop-opacity="1" stop-color="rgb(24.559021%, 46.528625%, 92.575073%)" offset="0.0703125"/><stop stop-opacity="1" stop-color="rgb(24.49646%, 46.838379%, 92.207336%)" offset="0.078125"/><stop stop-opacity="1" stop-color="rgb(24.432373%, 47.148132%, 91.8396%)" offset="0.0859375"/><stop stop-opacity="1" stop-color="rgb(24.369812%, 47.457886%, 91.471863%)" offset="0.09375"/><stop stop-opacity="1" stop-color="rgb(24.305725%, 47.767639%, 91.104126%)" offset="0.101562"/><stop stop-opacity="1" stop-color="rgb(24.241638%, 48.077393%, 90.736389%)" offset="0.109375"/><stop stop-opacity="1" stop-color="rgb(24.179077%, 48.387146%, 90.368652%)" offset="0.117187"/><stop stop-opacity="1" stop-color="rgb(24.11499%, 48.695374%, 90.002441%)" offset="0.125"/><stop stop-opacity="1" stop-color="rgb(24.052429%, 49.005127%, 89.634705%)" offset="0.132812"/><stop stop-opacity="1" stop-color="rgb(23.988342%, 49.31488%, 89.266968%)" offset="0.140625"/><stop stop-opacity="1" stop-color="rgb(23.925781%, 49.624634%, 88.899231%)" offset="0.148438"/><stop stop-opacity="1" stop-color="rgb(23.861694%, 49.934387%, 88.531494%)" offset="0.15625"/><stop stop-opacity="1" stop-color="rgb(23.797607%, 50.244141%, 88.163757%)" offset="0.164062"/><stop stop-opacity="1" stop-color="rgb(23.735046%, 50.552368%, 87.796021%)" offset="0.171875"/><stop stop-opacity="1" stop-color="rgb(23.670959%, 50.862122%, 87.428284%)" offset="0.179687"/><stop stop-opacity="1" stop-color="rgb(23.608398%, 51.171875%, 87.062073%)" offset="0.1875"/><stop stop-opacity="1" stop-color="rgb(23.544312%, 51.481628%, 86.694336%)" offset="0.195312"/><stop stop-opacity="1" stop-color="rgb(23.480225%, 51.791382%, 86.326599%)" offset="0.203125"/><stop stop-opacity="1" stop-color="rgb(23.417664%, 52.101135%, 85.958862%)" offset="0.210937"/><stop stop-opacity="1" stop-color="rgb(23.353577%, 52.409363%, 85.591125%)" offset="0.21875"/><stop stop-opacity="1" stop-color="rgb(23.291016%, 52.719116%, 85.223389%)" offset="0.226562"/><stop stop-opacity="1" stop-color="rgb(23.226929%, 53.02887%, 84.855652%)" offset="0.234375"/><stop stop-opacity="1" stop-color="rgb(23.164368%, 53.338623%, 84.489441%)" offset="0.242188"/><stop stop-opacity="1" stop-color="rgb(23.100281%, 53.648376%, 84.121704%)" offset="0.25"/><stop stop-opacity="1" stop-color="rgb(23.036194%, 53.95813%, 83.753967%)" offset="0.257812"/><stop stop-opacity="1" stop-color="rgb(22.973633%, 54.266357%, 83.38623%)" offset="0.265625"/><stop stop-opacity="1" stop-color="rgb(22.909546%, 54.576111%, 83.018494%)" offset="0.273438"/><stop stop-opacity="1" stop-color="rgb(22.846985%, 54.885864%, 82.650757%)" offset="0.28125"/><stop stop-opacity="1" stop-color="rgb(22.782898%, 55.195618%, 82.28302%)" offset="0.289062"/><stop stop-opacity="1" stop-color="rgb(22.720337%, 55.505371%, 81.915283%)" offset="0.296875"/><stop stop-opacity="1" stop-color="rgb(22.65625%, 55.815125%, 81.549072%)" offset="0.304688"/><stop stop-opacity="1" stop-color="rgb(22.592163%, 56.123352%, 81.181335%)" offset="0.3125"/><stop stop-opacity="1" stop-color="rgb(22.529602%, 56.433105%, 80.813599%)" offset="0.320312"/><stop stop-opacity="1" stop-color="rgb(22.465515%, 56.742859%, 80.445862%)" offset="0.328125"/><stop stop-opacity="1" stop-color="rgb(22.402954%, 57.052612%, 80.078125%)" offset="0.335937"/><stop stop-opacity="1" stop-color="rgb(22.338867%, 57.362366%, 79.710388%)" offset="0.34375"/><stop stop-opacity="1" stop-color="rgb(22.27478%, 57.672119%, 79.342651%)" offset="0.351562"/><stop stop-opacity="1" stop-color="rgb(22.212219%, 57.980347%, 78.974915%)" offset="0.359375"/><stop stop-opacity="1" stop-color="rgb(22.148132%, 58.2901%, 78.608704%)" offset="0.367188"/><stop stop-opacity="1" stop-color="rgb(22.085571%, 58.599854%, 78.240967%)" offset="0.375"/><stop stop-opacity="1" stop-color="rgb(22.021484%, 58.909607%, 77.87323%)" offset="0.382812"/><stop stop-opacity="1" stop-color="rgb(21.958923%, 59.21936%, 77.505493%)" offset="0.390625"/><stop stop-opacity="1" stop-color="rgb(21.894836%, 59.529114%, 77.137756%)" offset="0.398438"/><stop stop-opacity="1" stop-color="rgb(21.83075%, 59.837341%, 76.77002%)" offset="0.40625"/><stop stop-opacity="1" stop-color="rgb(21.768188%, 60.147095%, 76.402283%)" offset="0.414062"/><stop stop-opacity="1" stop-color="rgb(21.704102%, 60.456848%, 76.036072%)" offset="0.421875"/><stop stop-opacity="1" stop-color="rgb(21.641541%, 60.766602%, 75.668335%)" offset="0.429687"/><stop stop-opacity="1" stop-color="rgb(21.577454%, 61.076355%, 75.300598%)" offset="0.4375"/><stop stop-opacity="1" stop-color="rgb(21.513367%, 61.386108%, 74.932861%)" offset="0.445312"/><stop stop-opacity="1" stop-color="rgb(21.450806%, 61.695862%, 74.565125%)" offset="0.453125"/><stop stop-opacity="1" stop-color="rgb(21.386719%, 62.004089%, 74.197388%)" offset="0.460938"/><stop stop-opacity="1" stop-color="rgb(21.324158%, 62.313843%, 73.829651%)" offset="0.46875"/><stop stop-opacity="1" stop-color="rgb(21.260071%, 62.623596%, 73.461914%)" offset="0.476562"/><stop stop-opacity="1" stop-color="rgb(21.19751%, 62.93335%, 73.095703%)" offset="0.484375"/><stop stop-opacity="1" stop-color="rgb(21.133423%, 63.243103%, 72.727966%)" offset="0.492188"/><stop stop-opacity="1" stop-color="rgb(21.069336%, 63.552856%, 72.360229%)" offset="0.495166"/><stop stop-opacity="1" stop-color="rgb(21.038818%, 63.70697%, 72.177124%)" offset="0.5"/><stop stop-opacity="1" stop-color="rgb(21.006775%, 63.861084%, 71.992493%)" offset="0.504834"/><stop stop-opacity="1" stop-color="rgb(20.974731%, 64.016724%, 71.809387%)" offset="0.507812"/><stop stop-opacity="1" stop-color="rgb(20.942688%, 64.170837%, 71.624756%)" offset="0.515625"/><stop stop-opacity="1" stop-color="rgb(20.880127%, 64.480591%, 71.257019%)" offset="0.523438"/><stop stop-opacity="1" stop-color="rgb(20.81604%, 64.790344%, 70.889282%)" offset="0.53125"/><stop stop-opacity="1" stop-color="rgb(20.751953%, 65.100098%, 70.523071%)" offset="0.539062"/><stop stop-opacity="1" stop-color="rgb(20.689392%, 65.409851%, 70.155334%)" offset="0.546875"/><stop stop-opacity="1" stop-color="rgb(20.625305%, 65.718079%, 69.787598%)" offset="0.554688"/><stop stop-opacity="1" stop-color="rgb(20.562744%, 66.027832%, 69.419861%)" offset="0.5625"/><stop stop-opacity="1" stop-color="rgb(20.498657%, 66.337585%, 69.052124%)" offset="0.570312"/><stop stop-opacity="1" stop-color="rgb(20.436096%, 66.647339%, 68.684387%)" offset="0.578125"/><stop stop-opacity="1" stop-color="rgb(20.372009%, 66.957092%, 68.31665%)" offset="0.585938"/><stop stop-opacity="1" stop-color="rgb(20.307922%, 67.266846%, 67.948914%)" offset="0.59375"/><stop stop-opacity="1" stop-color="rgb(20.245361%, 67.575073%, 67.582703%)" offset="0.601563"/><stop stop-opacity="1" stop-color="rgb(20.181274%, 67.884827%, 67.214966%)" offset="0.609375"/><stop stop-opacity="1" stop-color="rgb(20.118713%, 68.19458%, 66.847229%)" offset="0.617188"/><stop stop-opacity="1" stop-color="rgb(20.054626%, 68.504333%, 66.479492%)" offset="0.625"/><stop stop-opacity="1" stop-color="rgb(19.992065%, 68.814087%, 66.111755%)" offset="0.632812"/><stop stop-opacity="1" stop-color="rgb(19.927979%, 69.12384%, 65.744019%)" offset="0.640625"/><stop stop-opacity="1" stop-color="rgb(19.863892%, 69.432068%, 65.376282%)" offset="0.648437"/><stop stop-opacity="1" stop-color="rgb(19.801331%, 69.741821%, 65.008545%)" offset="0.65625"/><stop stop-opacity="1" stop-color="rgb(19.737244%, 70.051575%, 64.642334%)" offset="0.664062"/><stop stop-opacity="1" stop-color="rgb(19.674683%, 70.361328%, 64.274597%)" offset="0.671875"/><stop stop-opacity="1" stop-color="rgb(19.610596%, 70.671082%, 63.90686%)" offset="0.679687"/><stop stop-opacity="1" stop-color="rgb(19.546509%, 70.980835%, 63.539124%)" offset="0.6875"/><stop stop-opacity="1" stop-color="rgb(19.483948%, 71.289062%, 63.171387%)" offset="0.695312"/><stop stop-opacity="1" stop-color="rgb(19.419861%, 71.598816%, 62.80365%)" offset="0.703125"/><stop stop-opacity="1" stop-color="rgb(19.3573%, 71.908569%, 62.435913%)" offset="0.710938"/><stop stop-opacity="1" stop-color="rgb(19.293213%, 72.218323%, 62.069702%)" offset="0.71875"/><stop stop-opacity="1" stop-color="rgb(19.230652%, 72.528076%, 61.701965%)" offset="0.726562"/><stop stop-opacity="1" stop-color="rgb(19.166565%, 72.83783%, 61.334229%)" offset="0.734375"/><stop stop-opacity="1" stop-color="rgb(19.102478%, 73.146057%, 60.966492%)" offset="0.742188"/><stop stop-opacity="1" stop-color="rgb(19.039917%, 73.455811%, 60.598755%)" offset="0.75"/><stop stop-opacity="1" stop-color="rgb(18.97583%, 73.765564%, 60.231018%)" offset="0.757812"/><stop stop-opacity="1" stop-color="rgb(18.913269%, 74.075317%, 59.863281%)" offset="0.765625"/><stop stop-opacity="1" stop-color="rgb(18.849182%, 74.385071%, 59.495544%)" offset="0.773438"/><stop stop-opacity="1" stop-color="rgb(18.785095%, 74.694824%, 59.129333%)" offset="0.78125"/><stop stop-opacity="1" stop-color="rgb(18.722534%, 75.003052%, 58.761597%)" offset="0.789063"/><stop stop-opacity="1" stop-color="rgb(18.658447%, 75.312805%, 58.39386%)" offset="0.796875"/><stop stop-opacity="1" stop-color="rgb(18.595886%, 75.622559%, 58.026123%)" offset="0.804688"/><stop stop-opacity="1" stop-color="rgb(18.531799%, 75.932312%, 57.658386%)" offset="0.8125"/><stop stop-opacity="1" stop-color="rgb(18.469238%, 76.242065%, 57.290649%)" offset="0.820312"/><stop stop-opacity="1" stop-color="rgb(18.405151%, 76.551819%, 56.922913%)" offset="0.828125"/><stop stop-opacity="1" stop-color="rgb(18.341064%, 76.861572%, 56.555176%)" offset="0.835937"/><stop stop-opacity="1" stop-color="rgb(18.278503%, 77.1698%, 56.188965%)" offset="0.84375"/><stop stop-opacity="1" stop-color="rgb(18.214417%, 77.479553%, 55.821228%)" offset="0.851562"/><stop stop-opacity="1" stop-color="rgb(18.151855%, 77.789307%, 55.453491%)" offset="0.859375"/><stop stop-opacity="1" stop-color="rgb(18.087769%, 78.09906%, 55.085754%)" offset="0.867188"/><stop stop-opacity="1" stop-color="rgb(18.023682%, 78.408813%, 54.718018%)" offset="0.875"/><stop stop-opacity="1" stop-color="rgb(17.961121%, 78.718567%, 54.350281%)" offset="0.882812"/><stop stop-opacity="1" stop-color="rgb(17.897034%, 79.026794%, 53.982544%)" offset="0.890625"/><stop stop-opacity="1" stop-color="rgb(17.834473%, 79.336548%, 53.616333%)" offset="0.898438"/><stop stop-opacity="1" stop-color="rgb(17.770386%, 79.646301%, 53.248596%)" offset="0.90625"/><stop stop-opacity="1" stop-color="rgb(17.707825%, 79.956055%, 52.880859%)" offset="0.914062"/><stop stop-opacity="1" stop-color="rgb(17.643738%, 80.265808%, 52.513123%)" offset="0.921875"/><stop stop-opacity="1" stop-color="rgb(17.579651%, 80.575562%, 52.145386%)" offset="0.929688"/><stop stop-opacity="1" stop-color="rgb(17.51709%, 80.883789%, 51.777649%)" offset="0.9375"/><stop stop-opacity="1" stop-color="rgb(17.453003%, 81.193542%, 51.409912%)" offset="0.945312"/><stop stop-opacity="1" stop-color="rgb(17.390442%, 81.503296%, 51.042175%)" offset="0.953125"/><stop stop-opacity="1" stop-color="rgb(17.326355%, 81.813049%, 50.675964%)" offset="0.960938"/><stop stop-opacity="1" stop-color="rgb(17.263794%, 82.122803%, 50.308228%)" offset="0.96875"/><stop stop-opacity="1" stop-color="rgb(17.199707%, 82.432556%, 49.940491%)" offset="0.976563"/><stop stop-opacity="1" stop-color="rgb(17.13562%, 82.740784%, 49.572754%)" offset="0.984375"/><stop stop-opacity="1" stop-color="rgb(17.073059%, 83.050537%, 49.205017%)" offset="0.992188"/><stop stop-opacity="1" stop-color="rgb(17.008972%, 83.360291%, 48.83728%)" offset="1"/></linearGradient></defs><g clip-path="url(#id1)"><g clip-path="url(#id2)"><path fill="url(#id3)" d="M 2.679688 0.960938 L 2.679688 29.03125 L 30.769531 29.03125 L 30.769531 0.960938 Z M 2.679688 0.960938 " fill-rule="nonzero"/></g></g><g clip-path="url(#id4)"><g clip-path="url(#id5)"><path fill="url(#id6)" d="M 112.484375 4.152344 L 112.484375 26.433594 L 144.769531 26.433594 L 144.769531 4.152344 Z M 112.484375 4.152344 " fill-rule="nonzero"/></g></g><path fill="#000000" d="M 119.996094 10.234375 L 123.28125 10.234375 L 123.28125 19.503906 L 124.75 19.503906 L 124.75 21.484375 L 121.046875 21.484375 L 121.046875 21.195312 C 120.789062 21.328125 120.519531 21.433594 120.242188 21.511719 C 119.972656 21.589844 119.695312 21.628906 119.417969 21.628906 C 118.839844 21.628906 118.3125 21.527344 117.828125 21.324219 C 117.347656 21.117188 116.933594 20.835938 116.585938 20.476562 C 116.242188 20.121094 115.976562 19.703125 115.78125 19.226562 C 115.589844 18.746094 115.492188 18.230469 115.492188 17.679688 C 115.492188 17.128906 115.585938 16.621094 115.773438 16.148438 C 115.96875 15.671875 116.234375 15.253906 116.574219 14.902344 C 116.914062 14.550781 117.324219 14.273438 117.796875 14.070312 C 118.277344 13.871094 118.800781 13.769531 119.371094 13.769531 C 119.6875 13.769531 119.980469 13.800781 120.257812 13.863281 C 120.535156 13.921875 120.796875 14.003906 121.046875 14.117188 L 121.046875 12.214844 L 119.996094 12.214844 Z M 119.539062 19.632812 C 119.859375 19.621094 120.148438 19.539062 120.402344 19.386719 C 120.664062 19.230469 120.878906 19.03125 121.046875 18.777344 L 121.046875 16.574219 C 120.878906 16.320312 120.660156 16.121094 120.386719 15.980469 C 120.121094 15.835938 119.839844 15.765625 119.539062 15.769531 C 119.289062 15.765625 119.050781 15.808594 118.828125 15.902344 C 118.609375 15.992188 118.417969 16.125 118.25 16.292969 C 118.085938 16.460938 117.953125 16.664062 117.855469 16.898438 C 117.761719 17.136719 117.710938 17.402344 117.710938 17.703125 C 117.710938 17.996094 117.761719 18.261719 117.855469 18.503906 C 117.953125 18.742188 118.085938 18.941406 118.25 19.113281 C 118.417969 19.277344 118.609375 19.402344 118.828125 19.488281 C 119.050781 19.574219 119.289062 19.621094 119.539062 19.632812 Z M 127.65625 18.207031 L 127.679688 18.433594 C 127.730469 18.648438 127.820312 18.839844 127.945312 19.003906 C 128.078125 19.167969 128.230469 19.304688 128.40625 19.414062 C 128.578125 19.527344 128.769531 19.609375 128.984375 19.667969 C 129.199219 19.722656 129.414062 19.746094 129.628906 19.746094 C 129.847656 19.746094 130.054688 19.734375 130.246094 19.710938 C 130.445312 19.683594 130.636719 19.648438 130.820312 19.601562 C 131.003906 19.554688 131.183594 19.503906 131.355469 19.445312 C 131.53125 19.382812 131.707031 19.316406 131.886719 19.25 L 132.683594 20.730469 C 132.40625 20.898438 132.15625 21.042969 131.921875 21.164062 C 131.695312 21.28125 131.464844 21.378906 131.234375 21.453125 C 131 21.53125 130.753906 21.585938 130.492188 21.621094 C 130.230469 21.660156 129.925781 21.679688 129.578125 21.679688 C 128.925781 21.679688 128.347656 21.574219 127.839844 21.359375 C 127.332031 21.144531 126.902344 20.851562 126.554688 20.484375 C 126.210938 20.121094 125.949219 19.691406 125.765625 19.199219 C 125.585938 18.707031 125.496094 18.1875 125.496094 17.636719 C 125.496094 17.085938 125.589844 16.570312 125.777344 16.089844 C 125.972656 15.605469 126.242188 15.1875 126.589844 14.832031 C 126.9375 14.46875 127.355469 14.183594 127.839844 13.976562 C 128.320312 13.769531 128.859375 13.667969 129.449219 13.667969 C 130.039062 13.667969 130.5625 13.765625 131.015625 13.964844 C 131.476562 14.15625 131.863281 14.425781 132.175781 14.773438 C 132.492188 15.117188 132.730469 15.519531 132.902344 15.988281 C 133.070312 16.449219 133.164062 16.949219 133.175781 17.484375 C 133.191406 17.605469 133.199219 17.726562 133.199219 17.847656 C 133.203125 17.960938 133.199219 18.082031 133.191406 18.207031 Z M 129.390625 15.476562 C 129.121094 15.476562 128.886719 15.507812 128.695312 15.574219 C 128.503906 15.640625 128.347656 15.726562 128.214844 15.84375 C 128.085938 15.953125 127.980469 16.082031 127.902344 16.226562 C 127.824219 16.371094 127.765625 16.523438 127.722656 16.683594 L 130.863281 16.683594 C 130.828125 16.519531 130.78125 16.363281 130.71875 16.21875 C 130.65625 16.074219 130.566406 15.945312 130.457031 15.835938 C 130.34375 15.726562 130.203125 15.640625 130.027344 15.574219 C 129.859375 15.507812 129.648438 15.476562 129.390625 15.476562 Z M 134.027344 13.992188 L 137.949219 13.992188 L 137.949219 15.972656 L 137.035156 15.972656 L 138.261719 19.191406 L 139.445312 15.972656 L 138.632812 15.972656 L 138.632812 13.992188 L 142.558594 13.992188 L 142.558594 15.972656 L 141.554688 15.972656 L 139.3125 21.511719 L 137.101562 21.511719 L 134.859375 15.972656 L 134.027344 15.972656 Z M 134.027344 13.992188 " fill-opacity="1" fill-rule="nonzero"/><g fill="#ffffff" fill-opacity="1"><g transform="translate(43.010174, 23.04327)"><g><path d="M 0.367188 0 L 4.671875 0 C 3.554688 -1.3125 2.90625 -2.90625 2.90625 -4.882812 L 4.902344 -4.882812 C 8.59375 -4.882812 10.449219 -6.964844 10.449219 -9.085938 C 10.449219 -11.238281 8.523438 -13.40625 4.621094 -13.40625 C 3.796875 -13.40625 1.664062 -13.320312 0.367188 -13.199219 C 1.191406 -11.21875 1.558594 -9.015625 1.558594 -6.84375 C 1.558594 -4.429688 1.101562 -2.03125 0.367188 0 Z M 8.210938 -10.097656 C 8.648438 -10.097656 8.875 -9.90625 8.875 -9.574219 C 8.875 -8.277344 5.636719 -6.179688 4.375 -6.179688 C 3.9375 -6.179688 3.691406 -6.371094 3.691406 -6.703125 C 3.691406 -8 6.929688 -10.097656 8.210938 -10.097656 Z M 8.210938 -10.097656 "/></g></g></g><g fill="#ffffff" fill-opacity="1"><g transform="translate(54.210388, 23.04327)"><g><path d="M 0.296875 0 L 3.761719 0 C 1.75 -3.324219 4.007812 -6.894531 6.511719 -6.894531 C 6.722656 -6.894531 6.949219 -6.863281 7.160156 -6.808594 L 7.160156 -9.855469 C 6.722656 -9.996094 6.335938 -10.066406 5.984375 -10.066406 C 3.625 -10.066406 3.605469 -6.878906 3.289062 -5.460938 L 3.011719 -5.496094 L 3.746094 -9.855469 L 0.296875 -9.855469 C 1.699219 -6.003906 1.699219 -3.851562 0.296875 0 Z M 0.296875 0 "/></g></g></g><g fill="#ffffff" fill-opacity="1"><g transform="translate(62.068128, 23.04327)"><g><path d="M 0.261719 -5.109375 C 0.261719 -1.347656 1.890625 0.210938 3.484375 0.210938 C 5.058594 0.210938 5.847656 -1.15625 6.335938 -2.574219 L 6.597656 -2.574219 C 6.492188 -1.785156 6.265625 -0.925781 5.949219 0 L 9.398438 0 C 8 -3.851562 8 -6.003906 9.398438 -9.855469 L 6.597656 -9.855469 L 6.949219 -7.71875 L 6.6875 -7.71875 C 6.335938 -9.695312 4.847656 -10.066406 3.972656 -10.066406 C 1.769531 -10.066406 0.261719 -8.261719 0.261719 -5.109375 Z M 3.519531 -5.96875 C 5.023438 -7 6.25 -7.421875 7.035156 -7.421875 C 7.472656 -7.421875 7.773438 -7.300781 7.910156 -7.070312 C 8.277344 -6.492188 7.648438 -5.285156 5.601562 -3.867188 C 4.097656 -2.835938 2.871094 -2.414062 2.082031 -2.414062 C 1.644531 -2.414062 1.347656 -2.539062 1.207031 -2.765625 C 0.839844 -3.34375 1.46875 -4.570312 3.519531 -5.96875 Z M 3.519531 -5.96875 "/></g></g></g><g fill="#ffffff" fill-opacity="1"><g transform="translate(72.375853, 23.04327)"><g><path d="M 0.296875 0 L 3.761719 0 C 0.789062 -5.25 6.074219 -7.402344 7.804688 -7.402344 C 8.050781 -7.402344 8.242188 -7.351562 8.296875 -7.265625 C 8.542969 -6.878906 7.894531 -6.019531 6.792969 -5.546875 C 5.375 -4.9375 4.464844 -5.109375 4.464844 -3.484375 C 4.464844 -2.992188 4.324219 0.210938 8.996094 0.210938 L 8.996094 -3.484375 C 6.195312 -3.484375 4.882812 -3.691406 4.882812 -4.148438 C 4.882812 -4.464844 5.898438 -4.535156 6.914062 -5.023438 C 8.472656 -5.777344 9.050781 -6.773438 9.050781 -8.613281 C 9.050781 -9.453125 8.664062 -10.066406 7.5625 -10.066406 C 5.617188 -10.066406 3.726562 -7.472656 3.289062 -5.496094 L 3.011719 -5.496094 L 3.746094 -13.636719 L 0.296875 -13.636719 C 2.046875 -9.433594 1.699219 -3.851562 0.296875 0 Z M 0.296875 0 "/></g></g></g><g fill="#ffffff" fill-opacity="1"><g transform="translate(82.263581, 23.04327)"><g><path d="M 0.261719 -5.109375 C 0.261719 -1.347656 1.890625 0.210938 3.484375 0.210938 C 5.058594 0.210938 5.847656 -1.15625 6.335938 -2.574219 L 6.597656 -2.574219 C 6.492188 -1.785156 6.265625 -0.925781 5.949219 0 L 9.398438 0 C 8 -3.851562 8 -6.003906 9.398438 -9.855469 L 6.597656 -9.855469 L 6.949219 -7.71875 L 6.6875 -7.71875 C 6.335938 -9.695312 4.847656 -10.066406 3.972656 -10.066406 C 1.769531 -10.066406 0.261719 -8.261719 0.261719 -5.109375 Z M 3.519531 -5.96875 C 5.023438 -7 6.25 -7.421875 7.035156 -7.421875 C 7.472656 -7.421875 7.773438 -7.300781 7.910156 -7.070312 C 8.277344 -6.492188 7.648438 -5.285156 5.601562 -3.867188 C 4.097656 -2.835938 2.871094 -2.414062 2.082031 -2.414062 C 1.644531 -2.414062 1.347656 -2.539062 1.207031 -2.765625 C 0.839844 -3.34375 1.46875 -4.570312 3.519531 -5.96875 Z M 3.519531 -5.96875 "/></g></g></g><g fill="#ffffff" fill-opacity="1"><g transform="translate(92.571306, 23.04327)"><g><path d="M 0.175781 0 C 0.859375 0.0859375 2.171875 0.210938 2.957031 0.210938 C 5.269531 0.210938 7.703125 -0.386719 7.703125 -2.871094 C 7.703125 -5.234375 5.546875 -5.722656 3.519531 -5.722656 C 2.800781 -5.722656 2.082031 -5.617188 1.539062 -5.617188 C 1.171875 -5.617188 0.664062 -5.652344 0.664062 -6.125 C 0.664062 -6.84375 2.152344 -7.421875 3.394531 -7.421875 C 5.410156 -7.421875 6.335938 -6.929688 6.984375 -6.582031 L 6.984375 -9.855469 C 6.335938 -9.960938 5.601562 -10.066406 4.847656 -10.066406 C 1.433594 -10.066406 0.191406 -8.277344 0.191406 -6.667969 C 0.191406 -4.289062 2.871094 -4.148438 4.882812 -4.0625 C 6.109375 -4.007812 7.089844 -3.972656 7.089844 -3.464844 C 7.089844 -2.976562 6.265625 -2.449219 4.691406 -2.449219 C 3.554688 -2.449219 2.046875 -2.714844 0.175781 -3.464844 Z M 0.175781 0 "/></g></g></g><g fill="#ffffff" fill-opacity="1"><g transform="translate(101.059037, 23.04327)"><g><path d="M 0.296875 0 L 3.761719 0 C 0.789062 -5.25 6.089844 -7.402344 7.804688 -7.402344 C 8.070312 -7.402344 8.242188 -7.351562 8.296875 -7.265625 C 8.980469 -6.160156 2.851562 -3.957031 4.902344 0 L 9.625 0 C 9.085938 -1.46875 8.558594 -3.1875 8.558594 -4.867188 C 8.558594 -7.5625 10.097656 -10.066406 7.527344 -10.066406 C 5.582031 -10.066406 3.726562 -7.472656 3.289062 -5.496094 L 3.011719 -5.496094 L 3.746094 -13.636719 L 0.296875 -13.636719 C 2.046875 -9.433594 1.699219 -3.851562 0.296875 0 Z M 0.296875 0 "/></g></g></g></svg>