<svg xmlns="http://www.w3.org/2000/svg" xmlns:xlink="http://www.w3.org/1999/xlink" width="198" zoomAndPan="magnify" viewBox="0 0 148.5 30.000001" height="40" preserveAspectRatio="xMidYMid meet" version="1.0"><defs><g/><clipPath id="id1"><path d="M 3.609375 0 L 33 0 L 33 29.03125 L 3.609375 29.03125 Z M 3.609375 0 " clip-rule="nonzero"/></clipPath><clipPath id="id2"><path d="M 29.976562 24.335938 L 32.738281 27.097656 L 30.707031 29.128906 L 27.578125 26.003906 L 25.257812 24.660156 C 23.765625 26.503906 21.628906 27.714844 19.28125 28.054688 L 19.28125 17.707031 L 18.960938 17.382812 L 16.589844 17.382812 L 16.589844 28.054688 C 14.242188 27.71875 12.109375 26.503906 10.617188 24.660156 L 7.21875 26.625 L 5.871094 24.292969 L 9.238281 22.351562 C 8.757812 21.203125 8.515625 19.972656 8.515625 18.726562 L 4.476562 18.726562 L 4.476562 16.035156 L 8.515625 16.035156 L 8.515625 14.691406 C 8.515625 13.824219 8.632812 12.988281 8.851562 12.191406 L 5.871094 10.472656 L 7.21875 8.140625 L 9.9375 9.710938 C 10.023438 9.574219 10.113281 9.4375 10.203125 9.304688 L 10.882812 9.304688 L 3.609375 2.03125 L 5.640625 0 L 14.949219 9.304688 L 15.097656 9.304688 L 27.023438 21.234375 C 27.011719 21.269531 27 21.308594 26.988281 21.347656 L 29.839844 24.199219 L 30.003906 24.292969 Z M 31.398438 18.726562 L 27.488281 18.726562 L 18.066406 9.304688 L 25.667969 9.304688 C 25.761719 9.4375 25.851562 9.574219 25.9375 9.710938 L 28.65625 8.140625 L 30.003906 10.472656 L 27.023438 12.191406 C 27.242188 12.984375 27.359375 13.824219 27.359375 14.691406 L 27.359375 16.035156 L 31.398438 16.035156 Z M 23.320312 6.613281 L 15.375 6.613281 L 13.070312 4.308594 C 13.332031 3.757812 13.6875 3.25 14.128906 2.808594 C 15.140625 1.796875 16.507812 1.230469 17.9375 1.230469 C 19.363281 1.230469 20.734375 1.796875 21.742188 2.808594 C 22.753906 3.816406 23.320312 5.1875 23.320312 6.613281 Z M 23.320312 6.613281 " clip-rule="evenodd"/></clipPath><clipPath id="id3"><path d="M 112 3 L 144.773438 3 L 144.773438 26 L 112 26 Z M 112 3 " clip-rule="nonzero"/></clipPath><clipPath id="id4"><path d="M 114.371094 3.816406 L 143.355469 3.816406 C 143.550781 3.816406 143.738281 3.851562 143.917969 3.925781 C 144.097656 4 144.257812 4.105469 144.394531 4.242188 C 144.53125 4.382812 144.640625 4.539062 144.714844 4.71875 C 144.789062 4.898438 144.824219 5.085938 144.824219 5.28125 L 144.824219 23.980469 C 144.824219 24.171875 144.789062 24.359375 144.714844 24.539062 C 144.640625 24.71875 144.53125 24.878906 144.394531 25.015625 C 144.257812 25.152344 144.097656 25.257812 143.917969 25.332031 C 143.738281 25.40625 143.550781 25.445312 143.355469 25.445312 L 114.371094 25.445312 C 114.175781 25.445312 113.988281 25.40625 113.808594 25.332031 C 113.628906 25.257812 113.46875 25.152344 113.332031 25.015625 C 113.195312 24.878906 113.085938 24.71875 113.011719 24.539062 C 112.9375 24.359375 112.902344 24.171875 112.902344 23.980469 L 112.902344 5.28125 C 112.902344 5.085938 112.9375 4.898438 113.011719 4.71875 C 113.085938 4.539062 113.195312 4.382812 113.332031 4.242188 C 113.46875 4.105469 113.628906 4 113.808594 3.925781 C 113.988281 3.851562 114.175781 3.816406 114.371094 3.816406 Z M 114.371094 3.816406 " clip-rule="nonzero"/></clipPath></defs><g clip-path="url(#id1)"><g clip-path="url(#id2)"><path fill="#ffffff" d="M 3.609375 0 L 3.609375 29.03125 L 32.738281 29.03125 L 32.738281 0 Z M 3.609375 0 " fill-opacity="1" fill-rule="nonzero"/></g></g><g clip-path="url(#id3)"><g clip-path="url(#id4)"><path fill="#ffffff" d="M 112.902344 3.816406 L 112.902344 25.445312 L 144.773438 25.445312 L 144.773438 3.816406 Z M 112.902344 3.816406 " fill-opacity="1" fill-rule="nonzero"/></g></g><path fill="#000000" d="M 120.1875 9.71875 L 123.375 9.71875 L 123.375 18.714844 L 124.792969 18.714844 L 124.792969 20.636719 L 121.207031 20.636719 L 121.207031 20.355469 C 120.953125 20.488281 120.691406 20.589844 120.425781 20.664062 C 120.164062 20.742188 119.894531 20.777344 119.625 20.777344 C 119.066406 20.777344 118.550781 20.679688 118.082031 20.484375 C 117.617188 20.28125 117.214844 20.007812 116.878906 19.664062 C 116.546875 19.316406 116.285156 18.910156 116.097656 18.449219 C 115.910156 17.980469 115.816406 17.480469 115.816406 16.945312 C 115.816406 16.414062 115.910156 15.917969 116.089844 15.457031 C 116.277344 14.996094 116.535156 14.59375 116.863281 14.25 C 117.199219 13.910156 117.59375 13.640625 118.054688 13.445312 C 118.519531 13.246094 119.027344 13.148438 119.582031 13.148438 C 119.886719 13.148438 120.171875 13.179688 120.4375 13.242188 C 120.707031 13.296875 120.960938 13.378906 121.207031 13.488281 L 121.207031 11.640625 L 120.1875 11.640625 Z M 119.742188 18.839844 C 120.050781 18.832031 120.332031 18.753906 120.582031 18.601562 C 120.832031 18.453125 121.042969 18.257812 121.207031 18.011719 L 121.207031 15.871094 C 121.042969 15.625 120.828125 15.433594 120.566406 15.296875 C 120.308594 15.15625 120.035156 15.089844 119.742188 15.09375 C 119.5 15.089844 119.269531 15.132812 119.054688 15.21875 C 118.84375 15.308594 118.65625 15.433594 118.492188 15.597656 C 118.332031 15.761719 118.203125 15.960938 118.109375 16.1875 C 118.015625 16.417969 117.96875 16.675781 117.96875 16.96875 C 117.96875 17.253906 118.015625 17.511719 118.109375 17.746094 C 118.203125 17.976562 118.332031 18.171875 118.492188 18.335938 C 118.65625 18.496094 118.84375 18.617188 119.054688 18.699219 C 119.269531 18.785156 119.5 18.832031 119.742188 18.839844 Z M 127.617188 17.457031 L 127.636719 17.675781 C 127.6875 17.886719 127.773438 18.070312 127.898438 18.230469 C 128.023438 18.390625 128.171875 18.523438 128.339844 18.628906 C 128.507812 18.738281 128.695312 18.820312 128.902344 18.875 C 129.109375 18.925781 129.320312 18.953125 129.53125 18.953125 C 129.742188 18.953125 129.941406 18.941406 130.128906 18.917969 C 130.320312 18.890625 130.503906 18.855469 130.683594 18.8125 C 130.863281 18.765625 131.035156 18.714844 131.203125 18.660156 C 131.371094 18.597656 131.542969 18.535156 131.71875 18.46875 L 132.492188 19.90625 C 132.222656 20.070312 131.976562 20.210938 131.753906 20.328125 C 131.53125 20.441406 131.308594 20.535156 131.085938 20.609375 C 130.859375 20.683594 130.621094 20.738281 130.367188 20.769531 C 130.113281 20.808594 129.816406 20.828125 129.480469 20.828125 C 128.847656 20.828125 128.285156 20.722656 127.792969 20.519531 C 127.300781 20.308594 126.882812 20.023438 126.546875 19.667969 C 126.214844 19.3125 125.957031 18.898438 125.78125 18.421875 C 125.605469 17.941406 125.519531 17.4375 125.519531 16.902344 C 125.519531 16.371094 125.609375 15.871094 125.792969 15.402344 C 125.980469 14.933594 126.242188 14.527344 126.582031 14.179688 C 126.917969 13.832031 127.324219 13.554688 127.792969 13.351562 C 128.261719 13.152344 128.78125 13.050781 129.355469 13.050781 C 129.925781 13.050781 130.433594 13.148438 130.875 13.339844 C 131.320312 13.527344 131.695312 13.789062 132 14.125 C 132.304688 14.457031 132.539062 14.851562 132.703125 15.304688 C 132.867188 15.753906 132.957031 16.238281 132.96875 16.757812 C 132.984375 16.875 132.992188 16.992188 132.992188 17.109375 C 132.996094 17.21875 132.992188 17.335938 132.984375 17.457031 Z M 129.296875 14.804688 C 129.035156 14.804688 128.808594 14.839844 128.621094 14.902344 C 128.4375 14.964844 128.285156 15.050781 128.15625 15.164062 C 128.03125 15.269531 127.929688 15.394531 127.855469 15.535156 C 127.78125 15.675781 127.722656 15.824219 127.679688 15.976562 L 130.726562 15.976562 C 130.691406 15.820312 130.644531 15.667969 130.585938 15.527344 C 130.523438 15.386719 130.4375 15.265625 130.332031 15.15625 C 130.222656 15.050781 130.085938 14.964844 129.917969 14.902344 C 129.753906 14.839844 129.546875 14.804688 129.296875 14.804688 Z M 133.792969 13.367188 L 137.597656 13.367188 L 137.597656 15.289062 L 136.714844 15.289062 L 137.902344 18.414062 L 139.050781 15.289062 L 138.261719 15.289062 L 138.261719 13.367188 L 142.066406 13.367188 L 142.066406 15.289062 L 141.097656 15.289062 L 138.921875 20.664062 L 136.777344 20.664062 L 134.601562 15.289062 L 133.792969 15.289062 Z M 133.792969 13.367188 " fill-opacity="1" fill-rule="nonzero"/><g fill="#ffffff" fill-opacity="1"><g transform="translate(44.229597, 22.229399)"><g><path d="M 0.359375 0 L 4.566406 0 C 3.472656 -1.28125 2.839844 -2.839844 2.839844 -4.773438 L 4.789062 -4.773438 C 8.398438 -4.773438 10.210938 -6.808594 10.210938 -8.878906 C 10.210938 -10.980469 8.332031 -13.101562 4.515625 -13.101562 C 3.710938 -13.101562 1.625 -13.015625 0.359375 -12.898438 C 1.164062 -10.964844 1.523438 -8.808594 1.523438 -6.6875 C 1.523438 -4.328125 1.078125 -1.984375 0.359375 0 Z M 8.023438 -9.871094 C 8.449219 -9.871094 8.671875 -9.683594 8.671875 -9.355469 C 8.671875 -8.089844 5.507812 -6.039062 4.277344 -6.039062 C 3.847656 -6.039062 3.609375 -6.226562 3.609375 -6.550781 C 3.609375 -7.816406 6.773438 -9.871094 8.023438 -9.871094 Z M 8.023438 -9.871094 "/></g></g></g><g fill="#ffffff" fill-opacity="1"><g transform="translate(55.172694, 22.229399)"><g><path d="M 0.289062 0 L 3.675781 0 C 1.710938 -3.25 3.917969 -6.738281 6.363281 -6.738281 C 6.570312 -6.738281 6.789062 -6.707031 6.996094 -6.652344 L 6.996094 -9.628906 C 6.570312 -9.765625 6.191406 -9.835938 5.851562 -9.835938 C 3.539062 -9.835938 3.523438 -6.722656 3.214844 -5.335938 L 2.941406 -5.371094 L 3.660156 -9.628906 L 0.289062 -9.628906 C 1.660156 -5.867188 1.660156 -3.761719 0.289062 0 Z M 0.289062 0 "/></g></g></g><g fill="#ffffff" fill-opacity="1"><g transform="translate(62.850089, 22.229399)"><g><path d="M 0.257812 -4.996094 C 0.257812 -1.316406 1.847656 0.207031 3.402344 0.207031 C 4.945312 0.207031 5.714844 -1.128906 6.191406 -2.515625 L 6.449219 -2.515625 C 6.347656 -1.746094 6.125 -0.90625 5.816406 0 L 9.1875 0 C 7.816406 -3.761719 7.816406 -5.867188 9.1875 -9.628906 L 6.449219 -9.628906 L 6.789062 -7.542969 L 6.535156 -7.542969 C 6.191406 -9.476562 4.738281 -9.835938 3.882812 -9.835938 C 1.726562 -9.835938 0.257812 -8.074219 0.257812 -4.996094 Z M 3.4375 -5.832031 C 4.910156 -6.84375 6.105469 -7.253906 6.875 -7.253906 C 7.304688 -7.253906 7.59375 -7.132812 7.730469 -6.910156 C 8.089844 -6.347656 7.476562 -5.164062 5.472656 -3.78125 C 4.003906 -2.769531 2.804688 -2.359375 2.035156 -2.359375 C 1.609375 -2.359375 1.316406 -2.480469 1.179688 -2.703125 C 0.820312 -3.265625 1.4375 -4.464844 3.4375 -5.832031 Z M 3.4375 -5.832031 "/></g></g></g><g fill="#ffffff" fill-opacity="1"><g transform="translate(72.921193, 22.229399)"><g><path d="M 0.289062 0 L 3.675781 0 C 0.769531 -5.132812 5.9375 -7.234375 7.628906 -7.234375 C 7.867188 -7.234375 8.058594 -7.183594 8.109375 -7.097656 C 8.347656 -6.722656 7.714844 -5.882812 6.636719 -5.421875 C 5.25 -4.824219 4.363281 -4.996094 4.363281 -3.402344 C 4.363281 -2.925781 4.226562 0.207031 8.792969 0.207031 L 8.792969 -3.402344 C 6.054688 -3.402344 4.773438 -3.609375 4.773438 -4.054688 C 4.773438 -4.363281 5.765625 -4.429688 6.757812 -4.910156 C 8.277344 -5.644531 8.84375 -6.621094 8.84375 -8.414062 C 8.84375 -9.238281 8.46875 -9.835938 7.390625 -9.835938 C 5.492188 -9.835938 3.644531 -7.304688 3.214844 -5.371094 L 2.941406 -5.371094 L 3.660156 -13.324219 L 0.289062 -13.324219 C 2 -9.21875 1.660156 -3.761719 0.289062 0 Z M 0.289062 0 "/></g></g></g><g fill="#ffffff" fill-opacity="1"><g transform="translate(82.581942, 22.229399)"><g><path d="M 0.257812 -4.996094 C 0.257812 -1.316406 1.847656 0.207031 3.402344 0.207031 C 4.945312 0.207031 5.714844 -1.128906 6.191406 -2.515625 L 6.449219 -2.515625 C 6.347656 -1.746094 6.125 -0.90625 5.816406 0 L 9.1875 0 C 7.816406 -3.761719 7.816406 -5.867188 9.1875 -9.628906 L 6.449219 -9.628906 L 6.789062 -7.542969 L 6.535156 -7.542969 C 6.191406 -9.476562 4.738281 -9.835938 3.882812 -9.835938 C 1.726562 -9.835938 0.257812 -8.074219 0.257812 -4.996094 Z M 3.4375 -5.832031 C 4.910156 -6.84375 6.105469 -7.253906 6.875 -7.253906 C 7.304688 -7.253906 7.59375 -7.132812 7.730469 -6.910156 C 8.089844 -6.347656 7.476562 -5.164062 5.472656 -3.78125 C 4.003906 -2.769531 2.804688 -2.359375 2.035156 -2.359375 C 1.609375 -2.359375 1.316406 -2.480469 1.179688 -2.703125 C 0.820312 -3.265625 1.4375 -4.464844 3.4375 -5.832031 Z M 3.4375 -5.832031 "/></g></g></g><g fill="#ffffff" fill-opacity="1"><g transform="translate(92.653044, 22.229399)"><g><path d="M 0.171875 0 C 0.839844 0.0859375 2.121094 0.207031 2.890625 0.207031 C 5.148438 0.207031 7.527344 -0.375 7.527344 -2.804688 C 7.527344 -5.113281 5.421875 -5.59375 3.4375 -5.59375 C 2.738281 -5.59375 2.035156 -5.492188 1.503906 -5.492188 C 1.144531 -5.492188 0.648438 -5.523438 0.648438 -5.988281 C 0.648438 -6.6875 2.105469 -7.253906 3.320312 -7.253906 C 5.285156 -7.253906 6.191406 -6.773438 6.824219 -6.433594 L 6.824219 -9.628906 C 6.191406 -9.734375 5.472656 -9.835938 4.738281 -9.835938 C 1.402344 -9.835938 0.1875 -8.089844 0.1875 -6.515625 C 0.1875 -4.191406 2.804688 -4.054688 4.773438 -3.96875 C 5.96875 -3.917969 6.929688 -3.882812 6.929688 -3.386719 C 6.929688 -2.90625 6.125 -2.394531 4.585938 -2.394531 C 3.472656 -2.394531 2 -2.652344 0.171875 -3.386719 Z M 0.171875 0 "/></g></g></g><g fill="#ffffff" fill-opacity="1"><g transform="translate(100.945958, 22.229399)"><g><path d="M 0.289062 0 L 3.675781 0 C 0.769531 -5.132812 5.953125 -7.234375 7.628906 -7.234375 C 7.886719 -7.234375 8.058594 -7.183594 8.109375 -7.097656 C 8.773438 -6.019531 2.789062 -3.867188 4.789062 0 L 9.40625 0 C 8.878906 -1.4375 8.363281 -3.113281 8.363281 -4.753906 C 8.363281 -7.390625 9.871094 -9.835938 7.355469 -9.835938 C 5.457031 -9.835938 3.644531 -7.304688 3.214844 -5.371094 L 2.941406 -5.371094 L 3.660156 -13.324219 L 0.289062 -13.324219 C 2 -9.21875 1.660156 -3.761719 0.289062 0 Z M 0.289062 0 "/></g></g></g></svg>