<svg xmlns="http://www.w3.org/2000/svg" xmlns:xlink="http://www.w3.org/1999/xlink" width="198" zoomAndPan="magnify" viewBox="0 0 148.5 30.000001" height="40" preserveAspectRatio="xMidYMid meet" version="1.0"><defs><g/><clipPath id="id1"><path d="M 100 2 L 137.457031 2 L 137.457031 28 L 100 28 Z M 100 2 " clip-rule="nonzero"/></clipPath><clipPath id="id2"><path d="M 102.484375 2.75 L 135.917969 2.75 C 136.144531 2.75 136.359375 2.792969 136.566406 2.878906 C 136.773438 2.964844 136.957031 3.085938 137.117188 3.246094 C 137.273438 3.402344 137.398438 3.585938 137.484375 3.792969 C 137.570312 4 137.613281 4.214844 137.613281 4.4375 L 137.613281 25.96875 C 137.613281 26.195312 137.570312 26.410156 137.484375 26.617188 C 137.398438 26.824219 137.273438 27.003906 137.117188 27.164062 C 136.957031 27.320312 136.773438 27.441406 136.566406 27.527344 C 136.359375 27.613281 136.144531 27.65625 135.917969 27.65625 L 102.484375 27.65625 C 102.257812 27.65625 102.042969 27.613281 101.835938 27.527344 C 101.628906 27.441406 101.445312 27.320312 101.285156 27.164062 C 101.128906 27.003906 101.003906 26.824219 100.917969 26.617188 C 100.832031 26.410156 100.789062 26.195312 100.789062 25.96875 L 100.789062 4.4375 C 100.789062 4.214844 100.832031 4 100.917969 3.792969 C 101.003906 3.585938 101.128906 3.402344 101.285156 3.246094 C 101.445312 3.085938 101.628906 2.964844 101.835938 2.878906 C 102.042969 2.792969 102.257812 2.75 102.484375 2.75 Z M 102.484375 2.75 " clip-rule="nonzero"/></clipPath><linearGradient x1="143.999994" gradientTransform="matrix(0.694753, 0, 0, 0.691838, 0.746114, 1.367102)" y1="38.000009" x2="177.394498" gradientUnits="userSpaceOnUse" y2="-11.163734" id="id3"><stop stop-opacity="1" stop-color="rgb(25.099182%, 43.899536%, 95.698547%)" offset="0"/><stop stop-opacity="1" stop-color="rgb(25.067139%, 44.055176%, 95.513916%)" offset="0.0078125"/><stop stop-opacity="1" stop-color="rgb(25.003052%, 44.366455%, 95.143127%)" offset="0.015625"/><stop stop-opacity="1" stop-color="rgb(24.938965%, 44.67926%, 94.772339%)" offset="0.0234375"/><stop stop-opacity="1" stop-color="rgb(24.874878%, 44.99054%, 94.403076%)" offset="0.03125"/><stop stop-opacity="1" stop-color="rgb(24.810791%, 45.301819%, 94.032288%)" offset="0.0390625"/><stop stop-opacity="1" stop-color="rgb(24.74823%, 45.614624%, 93.661499%)" offset="0.046875"/><stop stop-opacity="1" stop-color="rgb(24.684143%, 45.925903%, 93.292236%)" offset="0.0546875"/><stop stop-opacity="1" stop-color="rgb(24.620056%, 46.237183%, 92.921448%)" offset="0.0625"/><stop stop-opacity="1" stop-color="rgb(24.555969%, 46.549988%, 92.550659%)" offset="0.0703125"/><stop stop-opacity="1" stop-color="rgb(24.491882%, 46.861267%, 92.181396%)" offset="0.078125"/><stop stop-opacity="1" stop-color="rgb(24.427795%, 47.172546%, 91.810608%)" offset="0.0859375"/><stop stop-opacity="1" stop-color="rgb(24.363708%, 47.485352%, 91.439819%)" offset="0.09375"/><stop stop-opacity="1" stop-color="rgb(24.299622%, 47.796631%, 91.070557%)" offset="0.101562"/><stop stop-opacity="1" stop-color="rgb(24.235535%, 48.109436%, 90.699768%)" offset="0.109375"/><stop stop-opacity="1" stop-color="rgb(24.172974%, 48.420715%, 90.328979%)" offset="0.117187"/><stop stop-opacity="1" stop-color="rgb(24.108887%, 48.731995%, 89.959717%)" offset="0.125"/><stop stop-opacity="1" stop-color="rgb(24.0448%, 49.0448%, 89.588928%)" offset="0.132812"/><stop stop-opacity="1" stop-color="rgb(23.980713%, 49.356079%, 89.21814%)" offset="0.140625"/><stop stop-opacity="1" stop-color="rgb(23.916626%, 49.667358%, 88.848877%)" offset="0.148437"/><stop stop-opacity="1" stop-color="rgb(23.852539%, 49.980164%, 88.478088%)" offset="0.15625"/><stop stop-opacity="1" stop-color="rgb(23.788452%, 50.291443%, 88.1073%)" offset="0.164062"/><stop stop-opacity="1" stop-color="rgb(23.724365%, 50.602722%, 87.736511%)" offset="0.171875"/><stop stop-opacity="1" stop-color="rgb(23.660278%, 50.915527%, 87.367249%)" offset="0.179688"/><stop stop-opacity="1" stop-color="rgb(23.596191%, 51.226807%, 86.99646%)" offset="0.1875"/><stop stop-opacity="1" stop-color="rgb(23.53363%, 51.538086%, 86.625671%)" offset="0.195312"/><stop stop-opacity="1" stop-color="rgb(23.469543%, 51.850891%, 86.256409%)" offset="0.203125"/><stop stop-opacity="1" stop-color="rgb(23.405457%, 52.16217%, 85.88562%)" offset="0.210938"/><stop stop-opacity="1" stop-color="rgb(23.34137%, 52.474976%, 85.514832%)" offset="0.21875"/><stop stop-opacity="1" stop-color="rgb(23.277283%, 52.786255%, 85.145569%)" offset="0.226563"/><stop stop-opacity="1" stop-color="rgb(23.213196%, 53.097534%, 84.77478%)" offset="0.234375"/><stop stop-opacity="1" stop-color="rgb(23.149109%, 53.410339%, 84.403992%)" offset="0.242188"/><stop stop-opacity="1" stop-color="rgb(23.085022%, 53.721619%, 84.034729%)" offset="0.25"/><stop stop-opacity="1" stop-color="rgb(23.020935%, 54.032898%, 83.66394%)" offset="0.257812"/><stop stop-opacity="1" stop-color="rgb(22.958374%, 54.345703%, 83.293152%)" offset="0.265625"/><stop stop-opacity="1" stop-color="rgb(22.894287%, 54.656982%, 82.923889%)" offset="0.273437"/><stop stop-opacity="1" stop-color="rgb(22.8302%, 54.968262%, 82.553101%)" offset="0.28125"/><stop stop-opacity="1" stop-color="rgb(22.766113%, 55.281067%, 82.182312%)" offset="0.289062"/><stop stop-opacity="1" stop-color="rgb(22.702026%, 55.592346%, 81.813049%)" offset="0.296875"/><stop stop-opacity="1" stop-color="rgb(22.637939%, 55.905151%, 81.442261%)" offset="0.304687"/><stop stop-opacity="1" stop-color="rgb(22.573853%, 56.216431%, 81.071472%)" offset="0.3125"/><stop stop-opacity="1" stop-color="rgb(22.509766%, 56.52771%, 80.702209%)" offset="0.320312"/><stop stop-opacity="1" stop-color="rgb(22.445679%, 56.840515%, 80.331421%)" offset="0.328125"/><stop stop-opacity="1" stop-color="rgb(22.381592%, 57.151794%, 79.960632%)" offset="0.335937"/><stop stop-opacity="1" stop-color="rgb(22.319031%, 57.463074%, 79.59137%)" offset="0.34375"/><stop stop-opacity="1" stop-color="rgb(22.254944%, 57.775879%, 79.220581%)" offset="0.351562"/><stop stop-opacity="1" stop-color="rgb(22.190857%, 58.087158%, 78.849792%)" offset="0.359375"/><stop stop-opacity="1" stop-color="rgb(22.12677%, 58.398438%, 78.479004%)" offset="0.367187"/><stop stop-opacity="1" stop-color="rgb(22.062683%, 58.711243%, 78.109741%)" offset="0.375"/><stop stop-opacity="1" stop-color="rgb(21.998596%, 59.022522%, 77.738953%)" offset="0.382812"/><stop stop-opacity="1" stop-color="rgb(21.934509%, 59.335327%, 77.368164%)" offset="0.390625"/><stop stop-opacity="1" stop-color="rgb(21.870422%, 59.646606%, 76.998901%)" offset="0.398437"/><stop stop-opacity="1" stop-color="rgb(21.806335%, 59.957886%, 76.628113%)" offset="0.40625"/><stop stop-opacity="1" stop-color="rgb(21.743774%, 60.270691%, 76.257324%)" offset="0.414062"/><stop stop-opacity="1" stop-color="rgb(21.679688%, 60.58197%, 75.888062%)" offset="0.421875"/><stop stop-opacity="1" stop-color="rgb(21.615601%, 60.89325%, 75.517273%)" offset="0.429687"/><stop stop-opacity="1" stop-color="rgb(21.551514%, 61.206055%, 75.146484%)" offset="0.4375"/><stop stop-opacity="1" stop-color="rgb(21.487427%, 61.517334%, 74.777222%)" offset="0.445312"/><stop stop-opacity="1" stop-color="rgb(21.42334%, 61.828613%, 74.406433%)" offset="0.453125"/><stop stop-opacity="1" stop-color="rgb(21.359253%, 62.141418%, 74.035645%)" offset="0.460937"/><stop stop-opacity="1" stop-color="rgb(21.295166%, 62.452698%, 73.666382%)" offset="0.46875"/><stop stop-opacity="1" stop-color="rgb(21.231079%, 62.765503%, 73.295593%)" offset="0.476562"/><stop stop-opacity="1" stop-color="rgb(21.166992%, 63.076782%, 72.924805%)" offset="0.484375"/><stop stop-opacity="1" stop-color="rgb(21.104431%, 63.388062%, 72.555542%)" offset="0.492187"/><stop stop-opacity="1" stop-color="rgb(21.040344%, 63.700867%, 72.184753%)" offset="0.498935"/><stop stop-opacity="1" stop-color="rgb(21.008301%, 63.856506%, 72.000122%)" offset="0.5"/><stop stop-opacity="1" stop-color="rgb(20.976257%, 64.012146%, 71.813965%)" offset="0.501065"/><stop stop-opacity="1" stop-color="rgb(20.944214%, 64.167786%, 71.629333%)" offset="0.507812"/><stop stop-opacity="1" stop-color="rgb(20.91217%, 64.323425%, 71.444702%)" offset="0.515625"/><stop stop-opacity="1" stop-color="rgb(20.848083%, 64.63623%, 71.073914%)" offset="0.523438"/><stop stop-opacity="1" stop-color="rgb(20.783997%, 64.94751%, 70.703125%)" offset="0.53125"/><stop stop-opacity="1" stop-color="rgb(20.71991%, 65.258789%, 70.333862%)" offset="0.539062"/><stop stop-opacity="1" stop-color="rgb(20.655823%, 65.571594%, 69.963074%)" offset="0.546875"/><stop stop-opacity="1" stop-color="rgb(20.591736%, 65.882874%, 69.592285%)" offset="0.554688"/><stop stop-opacity="1" stop-color="rgb(20.529175%, 66.195679%, 69.221497%)" offset="0.5625"/><stop stop-opacity="1" stop-color="rgb(20.465088%, 66.506958%, 68.852234%)" offset="0.570313"/><stop stop-opacity="1" stop-color="rgb(20.401001%, 66.818237%, 68.481445%)" offset="0.578125"/><stop stop-opacity="1" stop-color="rgb(20.336914%, 67.131042%, 68.110657%)" offset="0.585938"/><stop stop-opacity="1" stop-color="rgb(20.272827%, 67.442322%, 67.741394%)" offset="0.59375"/><stop stop-opacity="1" stop-color="rgb(20.20874%, 67.753601%, 67.370605%)" offset="0.601563"/><stop stop-opacity="1" stop-color="rgb(20.144653%, 68.066406%, 66.999817%)" offset="0.609375"/><stop stop-opacity="1" stop-color="rgb(20.080566%, 68.377686%, 66.630554%)" offset="0.617188"/><stop stop-opacity="1" stop-color="rgb(20.016479%, 68.688965%, 66.259766%)" offset="0.625"/><stop stop-opacity="1" stop-color="rgb(19.952393%, 69.00177%, 65.888977%)" offset="0.632813"/><stop stop-opacity="1" stop-color="rgb(19.889832%, 69.313049%, 65.519714%)" offset="0.640625"/><stop stop-opacity="1" stop-color="rgb(19.825745%, 69.625854%, 65.148926%)" offset="0.648438"/><stop stop-opacity="1" stop-color="rgb(19.761658%, 69.937134%, 64.778137%)" offset="0.65625"/><stop stop-opacity="1" stop-color="rgb(19.697571%, 70.248413%, 64.408875%)" offset="0.664063"/><stop stop-opacity="1" stop-color="rgb(19.633484%, 70.561218%, 64.038086%)" offset="0.671875"/><stop stop-opacity="1" stop-color="rgb(19.569397%, 70.872498%, 63.667297%)" offset="0.679688"/><stop stop-opacity="1" stop-color="rgb(19.50531%, 71.183777%, 63.298035%)" offset="0.6875"/><stop stop-opacity="1" stop-color="rgb(19.441223%, 71.496582%, 62.927246%)" offset="0.695312"/><stop stop-opacity="1" stop-color="rgb(19.377136%, 71.807861%, 62.556458%)" offset="0.703125"/><stop stop-opacity="1" stop-color="rgb(19.314575%, 72.119141%, 62.187195%)" offset="0.710938"/><stop stop-opacity="1" stop-color="rgb(19.250488%, 72.431946%, 61.816406%)" offset="0.71875"/><stop stop-opacity="1" stop-color="rgb(19.186401%, 72.743225%, 61.445618%)" offset="0.726562"/><stop stop-opacity="1" stop-color="rgb(19.122314%, 73.05603%, 61.074829%)" offset="0.734375"/><stop stop-opacity="1" stop-color="rgb(19.058228%, 73.36731%, 60.705566%)" offset="0.742188"/><stop stop-opacity="1" stop-color="rgb(18.994141%, 73.678589%, 60.334778%)" offset="0.75"/><stop stop-opacity="1" stop-color="rgb(18.930054%, 73.991394%, 59.963989%)" offset="0.757812"/><stop stop-opacity="1" stop-color="rgb(18.865967%, 74.302673%, 59.594727%)" offset="0.765625"/><stop stop-opacity="1" stop-color="rgb(18.80188%, 74.613953%, 59.223938%)" offset="0.773438"/><stop stop-opacity="1" stop-color="rgb(18.739319%, 74.926758%, 58.853149%)" offset="0.78125"/><stop stop-opacity="1" stop-color="rgb(18.675232%, 75.238037%, 58.483887%)" offset="0.789062"/><stop stop-opacity="1" stop-color="rgb(18.611145%, 75.549316%, 58.113098%)" offset="0.796875"/><stop stop-opacity="1" stop-color="rgb(18.547058%, 75.862122%, 57.74231%)" offset="0.804688"/><stop stop-opacity="1" stop-color="rgb(18.482971%, 76.173401%, 57.373047%)" offset="0.8125"/><stop stop-opacity="1" stop-color="rgb(18.418884%, 76.48468%, 57.002258%)" offset="0.820312"/><stop stop-opacity="1" stop-color="rgb(18.354797%, 76.797485%, 56.63147%)" offset="0.828125"/><stop stop-opacity="1" stop-color="rgb(18.29071%, 77.108765%, 56.262207%)" offset="0.835937"/><stop stop-opacity="1" stop-color="rgb(18.226624%, 77.42157%, 55.891418%)" offset="0.84375"/><stop stop-opacity="1" stop-color="rgb(18.162537%, 77.732849%, 55.52063%)" offset="0.851562"/><stop stop-opacity="1" stop-color="rgb(18.099976%, 78.044128%, 55.151367%)" offset="0.859375"/><stop stop-opacity="1" stop-color="rgb(18.035889%, 78.356934%, 54.780579%)" offset="0.867187"/><stop stop-opacity="1" stop-color="rgb(17.971802%, 78.668213%, 54.40979%)" offset="0.875"/><stop stop-opacity="1" stop-color="rgb(17.907715%, 78.979492%, 54.040527%)" offset="0.882812"/><stop stop-opacity="1" stop-color="rgb(17.843628%, 79.292297%, 53.669739%)" offset="0.890625"/><stop stop-opacity="1" stop-color="rgb(17.779541%, 79.603577%, 53.29895%)" offset="0.898437"/><stop stop-opacity="1" stop-color="rgb(17.715454%, 79.914856%, 52.929688%)" offset="0.90625"/><stop stop-opacity="1" stop-color="rgb(17.651367%, 80.227661%, 52.558899%)" offset="0.914062"/><stop stop-opacity="1" stop-color="rgb(17.58728%, 80.53894%, 52.18811%)" offset="0.921875"/><stop stop-opacity="1" stop-color="rgb(17.524719%, 80.851746%, 51.817322%)" offset="0.929687"/><stop stop-opacity="1" stop-color="rgb(17.460632%, 81.163025%, 51.448059%)" offset="0.9375"/><stop stop-opacity="1" stop-color="rgb(17.396545%, 81.474304%, 51.077271%)" offset="0.945312"/><stop stop-opacity="1" stop-color="rgb(17.332458%, 81.787109%, 50.706482%)" offset="0.953125"/><stop stop-opacity="1" stop-color="rgb(17.268372%, 82.098389%, 50.337219%)" offset="0.960938"/><stop stop-opacity="1" stop-color="rgb(17.204285%, 82.409668%, 49.966431%)" offset="0.96875"/><stop stop-opacity="1" stop-color="rgb(17.140198%, 82.722473%, 49.595642%)" offset="0.976562"/><stop stop-opacity="1" stop-color="rgb(17.076111%, 83.033752%, 49.226379%)" offset="0.984375"/><stop stop-opacity="1" stop-color="rgb(17.012024%, 83.345032%, 48.855591%)" offset="0.992188"/><stop stop-opacity="1" stop-color="rgb(16.947937%, 83.657837%, 48.484802%)" offset="1"/></linearGradient></defs><g clip-path="url(#id1)"><g clip-path="url(#id2)"><path fill="url(#id3)" d="M 100.789062 2.75 L 100.789062 27.65625 L 137.457031 27.65625 L 137.457031 2.75 Z M 100.789062 2.75 " fill-rule="nonzero"/></g></g><path fill="#000000" d="M 109.195312 9.546875 L 112.871094 9.546875 L 112.871094 19.90625 L 114.507812 19.90625 L 114.507812 22.121094 L 110.371094 22.121094 L 110.371094 21.800781 C 110.078125 21.949219 109.777344 22.066406 109.46875 22.15625 C 109.167969 22.242188 108.859375 22.285156 108.542969 22.285156 C 107.902344 22.285156 107.308594 22.171875 106.765625 21.945312 C 106.230469 21.710938 105.769531 21.398438 105.378906 21 C 104.996094 20.601562 104.695312 20.132812 104.476562 19.601562 C 104.261719 19.0625 104.152344 18.484375 104.152344 17.871094 C 104.152344 17.257812 104.257812 16.6875 104.46875 16.160156 C 104.6875 15.625 104.984375 15.160156 105.363281 14.769531 C 105.746094 14.375 106.203125 14.066406 106.734375 13.839844 C 107.269531 13.613281 107.855469 13.5 108.496094 13.5 C 108.847656 13.5 109.175781 13.535156 109.484375 13.605469 C 109.792969 13.667969 110.089844 13.761719 110.371094 13.886719 L 110.371094 11.761719 L 109.195312 11.761719 Z M 108.683594 20.054688 C 109.039062 20.042969 109.359375 19.949219 109.648438 19.777344 C 109.941406 19.605469 110.179688 19.378906 110.371094 19.101562 L 110.371094 16.636719 C 110.179688 16.351562 109.933594 16.128906 109.632812 15.972656 C 109.332031 15.8125 109.019531 15.734375 108.683594 15.738281 C 108.402344 15.734375 108.136719 15.78125 107.886719 15.882812 C 107.644531 15.984375 107.425781 16.132812 107.238281 16.320312 C 107.054688 16.507812 106.90625 16.734375 106.800781 17 C 106.691406 17.261719 106.636719 17.5625 106.636719 17.894531 C 106.636719 18.222656 106.691406 18.523438 106.800781 18.792969 C 106.90625 19.058594 107.054688 19.28125 107.238281 19.472656 C 107.425781 19.65625 107.644531 19.792969 107.886719 19.890625 C 108.136719 19.988281 108.402344 20.042969 108.683594 20.054688 Z M 117.761719 18.460938 L 117.789062 18.710938 C 117.847656 18.953125 117.945312 19.167969 118.085938 19.351562 C 118.234375 19.535156 118.402344 19.6875 118.597656 19.8125 C 118.792969 19.933594 119.007812 20.027344 119.246094 20.09375 C 119.488281 20.152344 119.726562 20.183594 119.96875 20.183594 C 120.214844 20.183594 120.445312 20.167969 120.660156 20.140625 C 120.882812 20.109375 121.09375 20.070312 121.300781 20.019531 C 121.507812 19.96875 121.707031 19.90625 121.902344 19.84375 C 122.097656 19.773438 122.292969 19.699219 122.492188 19.625 L 123.386719 21.28125 C 123.078125 21.46875 122.792969 21.632812 122.535156 21.765625 C 122.28125 21.894531 122.023438 22.003906 121.765625 22.089844 C 121.503906 22.175781 121.226562 22.238281 120.9375 22.277344 C 120.644531 22.320312 120.304688 22.339844 119.914062 22.339844 C 119.183594 22.339844 118.535156 22.222656 117.964844 21.984375 C 117.398438 21.742188 116.917969 21.417969 116.53125 21.007812 C 116.144531 20.597656 115.851562 20.117188 115.644531 19.570312 C 115.445312 19.019531 115.34375 18.4375 115.34375 17.824219 C 115.34375 17.207031 115.449219 16.632812 115.660156 16.09375 C 115.878906 15.554688 116.179688 15.085938 116.570312 14.6875 C 116.960938 14.285156 117.425781 13.964844 117.964844 13.734375 C 118.507812 13.503906 119.109375 13.386719 119.769531 13.386719 C 120.425781 13.386719 121.011719 13.496094 121.519531 13.71875 C 122.035156 13.933594 122.46875 14.234375 122.820312 14.621094 C 123.171875 15.003906 123.441406 15.457031 123.628906 15.980469 C 123.820312 16.496094 123.921875 17.054688 123.9375 17.652344 C 123.953125 17.789062 123.964844 17.921875 123.964844 18.058594 C 123.96875 18.1875 123.964844 18.320312 123.953125 18.460938 Z M 119.703125 15.40625 C 119.398438 15.40625 119.140625 15.445312 118.921875 15.519531 C 118.710938 15.589844 118.535156 15.691406 118.386719 15.820312 C 118.242188 15.941406 118.125 16.085938 118.039062 16.246094 C 117.953125 16.410156 117.886719 16.578125 117.835938 16.757812 L 121.351562 16.757812 C 121.3125 16.574219 121.257812 16.402344 121.1875 16.238281 C 121.117188 16.078125 121.019531 15.933594 120.894531 15.8125 C 120.769531 15.6875 120.609375 15.589844 120.417969 15.519531 C 120.226562 15.445312 119.988281 15.40625 119.703125 15.40625 Z M 124.886719 13.75 L 129.277344 13.75 L 129.277344 15.964844 L 128.257812 15.964844 L 129.628906 19.558594 L 130.949219 15.964844 L 130.042969 15.964844 L 130.042969 13.75 L 134.433594 13.75 L 134.433594 15.964844 L 133.3125 15.964844 L 130.804688 22.15625 L 128.328125 22.15625 L 125.820312 15.964844 L 124.886719 15.964844 Z M 124.886719 13.75 " fill-opacity="1" fill-rule="nonzero"/><g fill="#ffffff" fill-opacity="1"><g transform="translate(6.514242, 24.59823)"><g><path d="M 0.496094 0 L 6.296875 0 C 4.785156 -1.769531 3.914062 -3.914062 3.914062 -6.578125 L 6.601562 -6.578125 C 11.578125 -6.578125 14.078125 -9.386719 14.078125 -12.238281 C 14.078125 -15.140625 11.484375 -18.0625 6.226562 -18.0625 C 5.117188 -18.0625 2.238281 -17.945312 0.496094 -17.78125 C 1.601562 -15.113281 2.097656 -12.144531 2.097656 -9.21875 C 2.097656 -5.964844 1.484375 -2.734375 0.496094 0 Z M 11.058594 -13.605469 C 11.648438 -13.605469 11.957031 -13.347656 11.957031 -12.898438 C 11.957031 -11.152344 7.59375 -8.324219 5.894531 -8.324219 C 5.304688 -8.324219 4.976562 -8.582031 4.976562 -9.03125 C 4.976562 -10.777344 9.339844 -13.605469 11.058594 -13.605469 Z M 11.058594 -13.605469 "/></g></g></g><g fill="#ffffff" fill-opacity="1"><g transform="translate(21.603159, 24.59823)"><g><path d="M 0.402344 0 L 5.070312 0 C 2.359375 -4.480469 5.398438 -9.289062 8.773438 -9.289062 C 9.054688 -9.289062 9.363281 -9.242188 9.644531 -9.171875 L 9.644531 -13.277344 C 9.054688 -13.464844 8.535156 -13.558594 8.066406 -13.558594 C 4.882812 -13.558594 4.859375 -9.265625 4.433594 -7.355469 L 4.054688 -7.40625 L 5.046875 -13.277344 L 0.402344 -13.277344 C 2.289062 -8.089844 2.289062 -5.1875 0.402344 0 Z M 0.402344 0 "/></g></g></g><g fill="#ffffff" fill-opacity="1"><g transform="translate(32.189098, 24.59823)"><g><path d="M 0.355469 -6.886719 C 0.355469 -1.816406 2.546875 0.28125 4.691406 0.28125 C 6.816406 0.28125 7.875 -1.554688 8.535156 -3.464844 L 8.890625 -3.464844 C 8.75 -2.40625 8.441406 -1.25 8.015625 0 L 12.664062 0 C 10.777344 -5.1875 10.777344 -8.089844 12.664062 -13.277344 L 8.890625 -13.277344 L 9.363281 -10.398438 L 9.007812 -10.398438 C 8.535156 -13.0625 6.53125 -13.558594 5.351562 -13.558594 C 2.382812 -13.558594 0.355469 -11.128906 0.355469 -6.886719 Z M 4.738281 -8.039062 C 6.769531 -9.433594 8.417969 -10 9.480469 -10 C 10.070312 -10 10.46875 -9.832031 10.660156 -9.527344 C 11.152344 -8.75 10.304688 -7.121094 7.546875 -5.210938 C 5.519531 -3.820312 3.867188 -3.253906 2.804688 -3.253906 C 2.214844 -3.253906 1.816406 -3.417969 1.628906 -3.726562 C 1.132812 -4.503906 1.980469 -6.15625 4.738281 -8.039062 Z M 4.738281 -8.039062 "/></g></g></g><g fill="#ffffff" fill-opacity="1"><g transform="translate(46.075655, 24.59823)"><g><path d="M 0.402344 0 L 5.070312 0 C 1.0625 -7.074219 8.183594 -9.972656 10.515625 -9.972656 C 10.847656 -9.972656 11.105469 -9.902344 11.175781 -9.785156 C 11.507812 -9.265625 10.636719 -8.113281 9.148438 -7.476562 C 7.238281 -6.648438 6.011719 -6.886719 6.011719 -4.691406 C 6.011719 -4.03125 5.824219 0.28125 12.121094 0.28125 L 12.121094 -4.691406 C 8.347656 -4.691406 6.578125 -4.976562 6.578125 -5.589844 C 6.578125 -6.011719 7.945312 -6.105469 9.3125 -6.769531 C 11.414062 -7.78125 12.191406 -9.125 12.191406 -11.601562 C 12.191406 -12.734375 11.671875 -13.558594 10.1875 -13.558594 C 7.570312 -13.558594 5.023438 -10.070312 4.433594 -7.40625 L 4.054688 -7.40625 L 5.046875 -18.371094 L 0.402344 -18.371094 C 2.757812 -12.710938 2.289062 -5.1875 0.402344 0 Z M 0.402344 0 "/></g></g></g><g fill="#ffffff" fill-opacity="1"><g transform="translate(59.396391, 24.59823)"><g><path d="M 0.355469 -6.886719 C 0.355469 -1.816406 2.546875 0.28125 4.691406 0.28125 C 6.816406 0.28125 7.875 -1.554688 8.535156 -3.464844 L 8.890625 -3.464844 C 8.75 -2.40625 8.441406 -1.25 8.015625 0 L 12.664062 0 C 10.777344 -5.1875 10.777344 -8.089844 12.664062 -13.277344 L 8.890625 -13.277344 L 9.363281 -10.398438 L 9.007812 -10.398438 C 8.535156 -13.0625 6.53125 -13.558594 5.351562 -13.558594 C 2.382812 -13.558594 0.355469 -11.128906 0.355469 -6.886719 Z M 4.738281 -8.039062 C 6.769531 -9.433594 8.417969 -10 9.480469 -10 C 10.070312 -10 10.46875 -9.832031 10.660156 -9.527344 C 11.152344 -8.75 10.304688 -7.121094 7.546875 -5.210938 C 5.519531 -3.820312 3.867188 -3.253906 2.804688 -3.253906 C 2.214844 -3.253906 1.816406 -3.417969 1.628906 -3.726562 C 1.132812 -4.503906 1.980469 -6.15625 4.738281 -8.039062 Z M 4.738281 -8.039062 "/></g></g></g><g fill="#ffffff" fill-opacity="1"><g transform="translate(73.282948, 24.59823)"><g><path d="M 0.234375 0 C 1.15625 0.117188 2.925781 0.28125 3.984375 0.28125 C 7.097656 0.28125 10.375 -0.519531 10.375 -3.867188 C 10.375 -7.050781 7.476562 -7.710938 4.738281 -7.710938 C 3.773438 -7.710938 2.804688 -7.570312 2.074219 -7.570312 C 1.578125 -7.570312 0.894531 -7.617188 0.894531 -8.253906 C 0.894531 -9.21875 2.902344 -10 4.574219 -10 C 7.285156 -10 8.535156 -9.339844 9.410156 -8.867188 L 9.410156 -13.277344 C 8.535156 -13.417969 7.546875 -13.558594 6.53125 -13.558594 C 1.933594 -13.558594 0.257812 -11.152344 0.257812 -8.984375 C 0.257812 -5.777344 3.867188 -5.589844 6.578125 -5.46875 C 8.230469 -5.398438 9.550781 -5.351562 9.550781 -4.667969 C 9.550781 -4.007812 8.441406 -3.300781 6.320312 -3.300781 C 4.785156 -3.300781 2.757812 -3.65625 0.234375 -4.667969 Z M 0.234375 0 "/></g></g></g><g fill="#ffffff" fill-opacity="1"><g transform="translate(84.71761, 24.59823)"><g><path d="M 0.402344 0 L 5.070312 0 C 1.0625 -7.074219 8.207031 -9.972656 10.515625 -9.972656 C 10.871094 -9.972656 11.105469 -9.902344 11.175781 -9.785156 C 12.097656 -8.300781 3.84375 -5.328125 6.601562 0 L 12.96875 0 C 12.238281 -1.980469 11.53125 -4.292969 11.53125 -6.554688 C 11.53125 -10.1875 13.605469 -13.558594 10.140625 -13.558594 C 7.523438 -13.558594 5.023438 -10.070312 4.433594 -7.40625 L 4.054688 -7.40625 L 5.046875 -18.371094 L 0.402344 -18.371094 C 2.757812 -12.710938 2.289062 -5.1875 0.402344 0 Z M 0.402344 0 "/></g></g></g></svg>